<svg xmlns="http://www.w3.org/2000/svg" width="15.506" height="15.506" viewBox="0 0 15.506 15.506">
    <g transform="translate(.253 .253)">
        <path data-name="Path 38" d="M16.743 8.486a7.5 7.5 0 1 1-7.5-7.5 7.659 7.659 0 0 1 6.257 3.36 7.715 7.715 0 0 1 1.243 4.14z" transform="translate(-1.743 -.986)" style="fill:none;stroke:#2494d2;stroke-miterlimit:10;stroke-width:.506px"/>
        <ellipse data-name="Ellipse 1" cx="3.693" cy="7.499" rx="3.693" ry="7.499" transform="translate(3.808)" style="fill:none;stroke:#2494d2;stroke-miterlimit:10;stroke-width:.506px"/>
        <path data-name="Path 39" d="m1.745 11.187 15 .136" transform="translate(-1.743 -3.893)" style="fill:none;stroke:#2494d2;stroke-miterlimit:10;stroke-width:.506px"/>
        <path data-name="Path 40" d="M3.541 17.056a22.251 22.251 0 0 1 5.72-.872 22.8 22.8 0 0 1 6.486.865" transform="translate(-2.192 -5.342)" style="fill:none;stroke:#2494d2;stroke-miterlimit:10;stroke-width:.506px"/>
        <path data-name="Path 41" d="M3.549 5.538a22.251 22.251 0 0 0 5.711.91 22.772 22.772 0 0 0 6.491-.82" transform="translate(-2.194 -2.292)" style="fill:none;stroke:#2494d2;stroke-miterlimit:10;stroke-width:.506px"/>
        <path data-name="Path 42" d="M12.173.986v15" transform="translate(-4.712 -.986)" style="fill:none;stroke:#2494d2;stroke-miterlimit:10;stroke-width:.506px"/>
    </g>
</svg>
