<svg xmlns="http://www.w3.org/2000/svg" width="20" height="20" viewBox="0 0 20 20">
    <g transform="translate(-.243 -.258)">
        <path data-name="Path 374" d="M10.255 18.719a8.568 8.568 0 0 1-7.922-5.487 8.458 8.458 0 1 1 16.254-1.549 8.608 8.608 0 0 1-8.332 7.035.769.769 0 1 0 0 1.538A10.189 10.189 0 0 0 19.7 13.53 10.013 10.013 0 0 0 5.022 1.716a10.12 10.12 0 0 0-4.6 10.5 10.126 10.126 0 0 0 9.83 8.04.769.769 0 1 0 0-1.538z" style="fill:#c82e2e"/>
        <rect data-name="Rectangle 330" width="2" height="8.96" rx="1" transform="translate(9.228 3.674)" style="fill:#c82e2e"/>
        <rect data-name="Rectangle 331" width="2" height="2" rx="1" transform="translate(9.228 14.381)" style="fill:#c82e2e"/>
    </g>
</svg>
