<svg xmlns="http://www.w3.org/2000/svg" width="20" height="20.051" viewBox="0 0 20 20.051">
    <path data-name="Path 652" d="m14.22.061-.12-.06H5.58a.31.31 0 0 0-.3.3v2a.12.12 0 0 0 .09.04h.52a.12.12 0 0 0 .12-.12V.801a.09.09 0 0 1 .1-.1h7.36a.09.09 0 0 1 .1.1v3.94a.11.11 0 0 0 0 .08l.38.37a.09.09 0 0 0 .08 0h3.94a.1.1 0 0 1 .1.1v11.1a.11.11 0 0 1-.1.1h-2a.12.12 0 0 0-.12.12v.52a.12.12 0 0 0 .12.11h2.45a.3.3 0 0 0 .3-.3V4.621a.09.09 0 0 0 0-.07zm3.09 4.42h-2.89a.11.11 0 0 1-.1-.1v-2.89a.1.1 0 0 1 .17-.07l2.88 2.88a.11.11 0 0 1-.06.18z"/>
    <path data-name="Path 653" d="M2 3.001v16.75a.3.3 0 0 0 .3.3h13a.3.3 0 0 0 .3-.3V7.461l-.11-.12-4.56-4.52-.11-.1H2.3a.29.29 0 0 0-.3.28zm1.05.45h6.93a.29.29 0 0 1 .3.3v3.94a.3.3 0 0 0 .3.3h3.93a.31.31 0 0 1 .3.3v10.71a.3.3 0 0 1-.3.3H3.05a.29.29 0 0 1-.3-.3V3.771a.29.29 0 0 1 .3-.3zm8.16.71 2.88 2.89a.1.1 0 0 1-.07.17h-2.88a.11.11 0 0 1-.1-.1v-2.87a.1.1 0 0 1 .17-.07zm-6.2 6.44a.37.37 0 0 0 .36.4h6.79a.37.37 0 0 0 .37-.37.38.38 0 0 0-.37-.37H5.37a.38.38 0 0 0-.36.36zm0 2.26a.38.38 0 0 0 .38.38h5.28a.38.38 0 0 0 .37-.38.38.38 0 0 0-.37-.37h-5.3a.38.38 0 0 0-.36.39zm0 2.26a.37.37 0 0 0 .38.37h6.79a.37.37 0 0 0 .37-.37.38.38 0 0 0-.37-.37H5.37a.38.38 0 0 0-.36.39z"/>
    <path data-name="Rectangle 1777" style="fill:none" d="M0 0h20v20H0z"/>
</svg>
