<svg width="64" height="64" viewBox="0 0 24 24" xmlns="http://www.w3.org/2000/svg">
    <path fill="#ffffff" d="m12 13.4l2.9 2.9q.275.275.7.275t.7-.275q.275-.275.275-.7t-.275-.7L13.4 12l2.9-2.9q.275-.275.275-.7t-.275-.7q-.275-.275-.7-.275t-.7.275L12 10.6L9.1 7.7q-.275-.275-.7-.275t-.7.275q-.275.275-.275.7t.275.7l2.9 2.9l-2.9 2.9q-.275.275-.275.7t.275.7q.275.275.7.275t.7-.275l2.9-2.9ZM5 21q-.825 0-1.413-.588T3 19V5q0-.825.588-1.413T5 3h14q.825 0 1.413.588T21 5v14q0 .825-.588 1.413T19 21H5Zm0-2h14V5H5v14ZM5 5v14V5Z"/>
</svg>