<svg xmlns="http://www.w3.org/2000/svg" width="20.001" height="20" viewBox="0 0 20.001 20">
    <path data-name="Rectangle 1857" transform="translate(.001)" style="fill:none" d="M0 0h20v20H0z"/>
    <path data-name="Path 655" d="m87.757 129.556 9.427-6.141a1.105 1.105 0 0 0-.784-.326H78.118a1.1 1.1 0 0 0-.755.3l9.166 6.16a1.107 1.107 0 0 0 1.228.007z" transform="translate(-77.363 -120.574)" style="fill:#aaa"/>
    <path data-name="Path 656" d="M79.606 154.095 71 148.3v11.82a1.073 1.073 0 0 0 1.071 1.072h17.678a1.073 1.073 0 0 0 1.071-1.072v-11.78l-8.842 5.772a2.137 2.137 0 0 1-2.372-.017z" transform="translate(-71 -144.023)" style="fill:#aaa"/>
</svg>
