<svg xmlns="http://www.w3.org/2000/svg" width="25" height="25" viewBox="0 0 25 25">
    <g data-name="Group 685">
        <path data-name="Rectangle 4907" style="fill:none" d="M0 0h25v25H0z"/>
        <path data-name="icons8-bookmark(1)" d="M3.923 5A1.923 1.923 0 0 0 2 6.923v15.385a1.923 1.923 0 0 0 1.923 1.923h7.692a1.923 1.923 0 0 1 1.923 1.923V6.923A1.923 1.923 0 0 0 11.615 5zm13.462 0a1.923 1.923 0 0 0-1.923 1.923v19.231a1.923 1.923 0 0 1 1.923-1.923h7.692A1.923 1.923 0 0 0 27 22.308V6.923A1.923 1.923 0 0 0 25.077 5z" transform="translate(-2 -3)" style="fill:#4c7e9f"/>
    </g>
</svg>
