<svg xmlns="http://www.w3.org/2000/svg" width="16" height="16" viewBox="0 0 16 16">
    <path data-name="Subtraction 5" d="M1423.5 1780a7.5 7.5 0 1 1 7.5-7.5 7.509 7.509 0 0 1-7.5 7.5zm-2.5-10.749a.747.747 0 0 0-.533 1.277l1.975 1.969-1.975 1.967a.763.763 0 0 0 0 1.066.75.75 0 0 0 .532.22h.001a.736.736 0 0 0 .527-.22l1.967-1.967 1.97 1.966a.753.753 0 1 0 1.064-1.066l-1.967-1.967 1.967-1.969a.747.747 0 0 0-.527-1.277h-.013a.733.733 0 0 0-.524.218l-1.969 1.968-1.967-1.968a.758.758 0 0 0-.528-.216z" transform="translate(-1415.5 -1764.5)" style="fill:rgba(255,255,255,.8);stroke:transparent;stroke-miterlimit:10"/>
</svg>
