<svg xmlns="http://www.w3.org/2000/svg" width="30" height="30.001" viewBox="0 0 30 30.001">
    <path data-name="Subtraction 25" d="M20.7 30H2.3A2.307 2.307 0 0 1 0 27.693V2.308A2.307 2.307 0 0 1 2.3 0h12.075a1.141 1.141 0 0 1 .814.338l7.475 7.5a1.147 1.147 0 0 1 .336.816v19.039A2.307 2.307 0 0 1 20.7 30zm-4.27-15.62v7.37h1.16v-3.17h2.72v-.97h-2.72v-2.25h3.2v-.98zm-6.99 0v7.37h1.97c2.218 0 3.49-1.352 3.49-3.71s-1.261-3.66-3.55-3.66zm-6.469 0v7.37h1.158v-2.79H5.24c1.76 0 2.77-.857 2.77-2.35s-.946-2.23-2.81-2.23zM13.8 2.2v5.88a1.154 1.154 0 0 0 1.15 1.155h5.86zm-2.53 18.6h-.67v-5.469h.67c1.612 0 2.43.912 2.43 2.71s-.84 2.759-2.43 2.759zm-6.14-2.769h-1V15.32h.96c1.248 0 1.78.386 1.78 1.291 0 .968-.553 1.42-1.74 1.42z" transform="translate(4.309)" style="fill:#fff"/>
    <path data-name="Rectangle 2339" style="fill:none" d="M0 0h30v30H0z"/>
</svg>
