<svg xmlns="http://www.w3.org/2000/svg" width="20" height="19.996" viewBox="0 0 20 19.996">
    <g data-name="Group 5">
        <path data-name="Combined Shape" d="M2.506 13.288a.676.676 0 0 1-.614-.386l-.092-.194a1 1 0 0 0-1.482-.38L0 12.552V0h5v12.553l-.3-.216a1 1 0 0 0-1.486.368l-.1.2a.677.677 0 0 1-.608.383z" transform="rotate(45 -1.128 15.997)" style="fill:#10a4b9"/>
        <path d="M.828.541a1 1 0 0 1 1.779 0l.821 1.6H0z" transform="rotate(-135 5.353 9.496)" style="fill:#10a4b9"/>
        <path d="M1 0h3a1 1 0 0 1 1 1v3.167H0V1a1 1 0 0 1 1-1z" transform="rotate(45 8.232 19.874)" style="fill:#10a4b9"/>
    </g>
</svg>
