<svg xmlns="http://www.w3.org/2000/svg" width="15" height="15.254" viewBox="0 0 15 15.254">
    <path data-name="Rectangle 2245" transform="translate(0 .254)" style="fill:none" d="M0 0h15v15H0z"/>
    <path d="M35.6 18.9a12.577 12.577 0 0 1-.222 3c-.37.951-2.248.565-2.516.447a3.335 3.335 0 0 1-1.667-1.718 3.964 3.964 0 0 1-.147-2.206 12.181 12.181 0 0 1 1.173-3.823 11.815 11.815 0 0 1 4.069-4.9 5.528 5.528 0 0 1 2.99-1.078 3.1 3.1 0 0 1 2.255.686 2.508 2.508 0 0 1 .83 2.01c-.1.7-2.782 2.175-3.386 1.96-.685-.244-.731-.837-1.324-.882-.152-.011-.947.049-2.2 1.842-1.278 1.835-1.341 2.51-1.118 3.258.213.704 1.15.409 1.263 1.404z" transform="translate(-29.178 -8.367)" style="stroke:#2494d2;stroke-miterlimit:10;stroke-width:.51px;fill:none"/>
</svg>
