<svg xmlns="http://www.w3.org/2000/svg" width="16" height="16" viewBox="0 0 16 16">
    <g transform="translate(-650 -840)">
        <circle data-name="Ellipse 33" cx="8" cy="8" r="8" transform="translate(650 840)" style="fill:#ffad00"/>
        <g data-name="Group 942">
            <g data-name="Group 59">
                <path data-name="Union 23" d="m10308.018 6134.7-2.016-2.056 2.078-2.093a.166.166 0 0 1 .079-.022.171.171 0 0 1 .167.158l-.014 1.075a.965.965 0 0 1 .12-.009h1.3a.891.891 0 0 1 0 1.782h-1.3a.907.907 0 0 1-.146-.014l-.013 1.031a.171.171 0 0 1-.169.174.169.169 0 0 1-.086-.026zm6.205-.743c-.08 0-.145-.087-.145-.193s.064-.191.145-.191h.867c.078 0 .143.085.143.191s-.064.193-.143.193zm-.8 0c-.062 0-.115-.087-.115-.193s.053-.191.115-.191h.156c.062 0 .113.085.113.191s-.052.193-.113.193zm-2.282 0c-.077 0-.142-.087-.142-.193s.064-.191.142-.191h1.642c.078 0 .141.085.141.191s-.062.193-.141.193zm4.741-.037h-.228v-.308h.323v.308zm-.893-1.118c-.078 0-.143-.085-.143-.192s.064-.193.143-.193h.869c.078 0 .143.087.143.193s-.064.192-.143.192zm-.8 0c-.062 0-.115-.085-.115-.192s.053-.193.115-.193h.156c.063 0 .113.087.113.193s-.051.192-.113.192zm-.77 0c-.062 0-.115-.085-.115-.192s.053-.193.115-.193h.156c.062 0 .113.087.113.193s-.052.192-.113.192zm-2.282 0c-.077 0-.142-.085-.142-.192s.064-.193.142-.193h1.642c.078 0 .141.087.141.193s-.062.192-.141.192zm3.081-.77c-.08 0-.145-.085-.145-.191s.064-.192.145-.192h.867c.078 0 .143.085.143.192s-.064.191-.143.191zm-2.312 0c-.078 0-.141-.085-.141-.191s.063-.192.141-.192h1.643c.077 0 .141.085.141.192s-.063.191-.141.191zm-.795 0c-.062 0-.115-.085-.115-.191s.053-.192.115-.192h.156c.063 0 .113.085.113.192s-.051.191-.113.191zm4.768-.047h-.228v-.307h.323v.307zm-2.205-2.086.015-1.057a.748.748 0 0 1-.12.01h-1.279a.876.876 0 0 1 0-1.751h1.279a.872.872 0 0 1 .144.013l.013-1.015a.167.167 0 0 1 .166-.17.174.174 0 0 1 .087.024l1.985 2.021-2.048 2.058a.157.157 0 0 1-.077.021.167.167 0 0 1-.161-.153zm-2.947-.943c-.062 0-.115-.087-.115-.191s.053-.193.115-.193h.156c.063 0 .113.087.113.193s-.051.191-.113.191zm-2.281 0c-.078 0-.141-.087-.141-.191s.063-.193.141-.193h1.642c.078 0 .14.087.14.193s-.062.191-.14.191zm-1.537 0c-.078 0-.143-.087-.143-.191s.064-.193.143-.193h.869c.078 0 .143.087.143.193s-.064.191-.143.191zm-.652-.052h-.257v-.307h.367v.307zm2.959-.718c-.078 0-.141-.085-.141-.191s.063-.193.141-.193h1.643c.077 0 .139.087.139.193s-.062.191-.139.191zm-.795 0c-.064 0-.115-.085-.115-.191s.051-.193.115-.193h.154c.063 0 .115.087.115.193s-.053.191-.115.191zm-.77 0c-.064 0-.115-.085-.115-.191s.051-.193.115-.193h.154c.064 0 .115.087.115.193s-.051.191-.115.191zm-1.51 0c-.08 0-.143-.085-.143-.191s.063-.193.143-.193h.867c.08 0 .143.087.143.193s-.062.191-.143.191zm3.074-1.153c-.078 0-.141-.087-.141-.193s.063-.191.141-.191h1.643c.077 0 .139.085.139.191s-.062.193-.139.193zm-.795 0c-.064 0-.115-.087-.115-.193s.051-.191.115-.191h.154c.063 0 .115.085.115.191s-.053.193-.115.193zm-1.512 0c-.078 0-.143-.087-.143-.193s.064-.191.143-.191h.869c.078 0 .143.085.143.191s-.064.193-.143.193zm-.652-.062h-.256v-.308h.367v.308z" transform="translate(-9653.002 -5282.328)" style="fill:#fff;stroke:transparent;stroke-miterlimit:10"/>
            </g>
            <path data-name="Rectangle 5370" transform="translate(653 843)" style="fill:none" d="M0 0h10v10H0z"/>
        </g>
    </g>
</svg>
