<svg xmlns="http://www.w3.org/2000/svg" width="30" height="30" viewBox="0 0 30 30">
    <path data-name="Rectangle 3411" transform="translate(0 .607)" style="fill:none" d="M0 0h30v28.821H0z"/>
    <path data-name="Path 752" d="m76.607 56.2-3.3 2.3a10.048 10.048 0 0 1 1.958 6.1 10.827 10.827 0 0 1-21.644 0 10.556 10.556 0 0 1 4.432-8.5l1.855 2.5 2.164-4.8 2.167-4.8-5.36.5-5.36.5 2.061 2.8a14.4 14.4 0 0 0-6.08 11.7 14.952 14.952 0 0 0 29.89 0 14.374 14.374 0 0 0-2.783-8.3z" transform="translate(-49.462 -49)" style="fill:#fff"/>
</svg>
