<svg xmlns="http://www.w3.org/2000/svg" width="30" height="30" viewBox="0 0 30 30">
    <g data-name="Group 651">
        <path data-name="Rectangle 4705" style="fill:none" d="M0 0h30v30H0z"/>
        <g data-name="Group 652">
            <path data-name="Path 835" d="m10.973 28.163 1.837.916a.6.6 0 0 1 .016 1.069l-5.59 3a.6.6 0 0 1-.878-.438l-.963-6.27a.6.6 0 0 1 .862-.629l1.543.77 3.173 1.585z" transform="translate(-2.387 -18.338)" style="fill:#10a4b9"/>
            <path data-name="Path 836" d="M46.473 23.772A1.279 1.279 0 0 0 45.2 25.05v5.857l-3.456 3.456a1.277 1.277 0 1 0 1.806 1.806l4.206-4.206v-6.915a1.277 1.277 0 0 0-1.278-1.278z" transform="translate(-30.285 -16.809)" style="fill:#10a4b9"/>
            <g data-name="Group 653">
                <path data-name="Path 837" d="M75.828 66.167a5.388 5.388 0 0 0-1.72-.287c-.119 0-.236.011-.355.018a5.389 5.389 0 0 0-5.01 4.929c-.011.146-.022.292-.022.44a5.323 5.323 0 0 0 .256 1.635 5.387 5.387 0 1 0 6.854-6.735zM74.107 75a3.739 3.739 0 0 1-3.728-3.728 3.532 3.532 0 0 1 .029-.44 3.734 3.734 0 0 1 3.344-3.27 3.8 3.8 0 0 1 .355-.018 3.728 3.728 0 0 1 0 7.456z" transform="translate(-51.497 -49.462)" style="fill:#10a4b9"/>
                <path data-name="Path 838" d="M85.851 81.756a.294.294 0 0 1 0-.415l.353-.353.55-.55a.294.294 0 0 0 0-.415l-.55-.55-.209-.209a.294.294 0 0 0-.415 0l-.9.9a.294.294 0 0 1-.415 0l-.135-.135-.768-.768a.294.294 0 0 0-.415 0l-.759.759a.294.294 0 0 0 0 .415l.7.7.2.2a.294.294 0 0 1 0 .415l-.9.9a.294.294 0 0 0 0 .415l.139.139.62.62a.294.294 0 0 0 .415 0l.62-.62.283-.283a.294.294 0 0 1 .415 0l.283.283.62.62a.294.294 0 0 0 .415 0l.759-.759a.294.294 0 0 0 0-.415l-.55-.55-.353-.353z" transform="translate(-61.87 -59.773)" style="fill:#10a4b9"/>
            </g>
            <g data-name="Group 654">
                <path data-name="Path 839" d="M31.02 11.261a9.832 9.832 0 0 1 2.886 6.966 9.871 9.871 0 0 1-.24 2.158 5.441 5.441 0 0 1 1.785 1.9 12.1 12.1 0 0 0-22.54-8.767 1.123 1.123 0 1 0 2.068.874 9.845 9.845 0 0 1 16.039-3.131z" transform="translate(-8.152 -3.13)" style="fill:#10a4b9"/>
                <path data-name="Path 840" d="M26.232 80.476a9.893 9.893 0 0 1-2.174.243 9.864 9.864 0 0 1-9.074-6.019 1.123 1.123 0 0 0-2.068.874 12.106 12.106 0 0 0 15.208 6.688 5.408 5.408 0 0 1-1.886-1.788z" transform="translate(-8.157 -55.772)" style="fill:#10a4b9"/>
            </g>
        </g>
    </g>
</svg>
