<svg xmlns="http://www.w3.org/2000/svg" width="20" height="20" viewBox="0 0 20 20">
    <path d="M15.175 7.609a.892.892 0 0 1 1.2-1.322l3.645 3.347a.919.919 0 0 1 .3.661.9.9 0 0 1-.3.661l-3.647 3.316a.971.971 0 0 1-.6.238.857.857 0 0 1-.661-.3.9.9 0 0 1 .062-1.26l2.893-2.655zm-8.2 9.008 4.977-13.378a.913.913 0 0 1 1.715.63l-5 13.43a.878.878 0 0 1-.94.568.672.672 0 0 1-.238-.062.868.868 0 0 1-.517-1.188zM.62 9.6l3.646-3.344a.892.892 0 1 1 1.2 1.322l-2.894 2.665L5.465 12.9a.9.9 0 0 1 .062 1.26.878.878 0 0 1-1.26.062L.62 10.925a.94.94 0 0 1-.3-.682.888.888 0 0 1 .3-.643z" transform="translate(-.32 -.258)" style="fill:#aaa"/>
    <path data-name="Rectangle 1858" style="fill:none" d="M0 0h20v20H0z"/>
</svg>
