<svg id="Search_bar" data-name="Search bar" xmlns="http://www.w3.org/2000/svg" xmlns:xlink="http://www.w3.org/1999/xlink" width="14.759" height="14.784" viewBox="0 0 14.759 14.784">
  <defs>
    <style>
      .cls-1 {
        fill: #706e6b;
      }

      .cls-2 {
        fill: #b0adab;
      }

      .cls-3 {
        clip-path: url(#clip-path);
      }
    </style>
    <clipPath id="clip-path">
      <path id="_Color" data-name="🎨 Color" class="cls-1" d="M13.646,14.784a.457.457,0,0,1-.323-.139L9.231,10.553A5.819,5.819,0,0,1,.03,6.4,5.81,5.81,0,0,1,5.778,0a5.872,5.872,0,0,1,.591.03A5.785,5.785,0,0,1,9.834,1.623a5.819,5.819,0,0,1,.689,7.608l4.123,4.092a.514.514,0,0,1-.03.677l-.646.646A.456.456,0,0,1,13.646,14.784ZM5.815,1.846A3.969,3.969,0,1,0,9.785,5.815,3.974,3.974,0,0,0,5.815,1.846Z"/>
    </clipPath>
  </defs>
  <path id="_Color-2" data-name="🎨 Color" class="cls-2" d="M13.646,14.784a.457.457,0,0,1-.323-.139L9.231,10.553A5.819,5.819,0,0,1,.03,6.4,5.81,5.81,0,0,1,5.778,0a5.872,5.872,0,0,1,.591.03A5.785,5.785,0,0,1,9.834,1.623a5.819,5.819,0,0,1,.689,7.608l4.123,4.092a.514.514,0,0,1-.03.677l-.646.646A.456.456,0,0,1,13.646,14.784ZM5.815,1.846A3.969,3.969,0,1,0,9.785,5.815,3.974,3.974,0,0,0,5.815,1.846Z"/>
  <g id="Mask_Group_5" data-name="Mask Group 5" class="cls-3">
    <g id="PALETTE_GRAY_7" transform="translate(-1.23 -1.231)">
      <rect id="Rectangle" class="cls-2" width="17.231" height="17.231"/>
    </g>
  </g>
</svg>
