<svg xmlns="http://www.w3.org/2000/svg" width="20" height="20" viewBox="0 0 20 20">
    <path data-name="Rectangle 908" style="fill:none" d="M0 0h20v20H0z"/>
    <path d="M8.917 1a2.314 2.314 0 0 0-2.3 2.3v.775H2v1.54h1.538v13.077A2.308 2.308 0 0 0 5.846 21h9.231a2.308 2.308 0 0 0 2.308-2.308V5.615h1.538V4.077h-4.615V3.3a2.314 2.314 0 0 0-2.3-2.3zm0 1.538h3.089a.749.749 0 0 1 .763.763v.775H8.154V3.3a.749.749 0 0 1 .763-.762zm-2.3 4.615h1.537v10.77H6.615zm3.077 0h1.538v10.77h-1.54zm3.077 0h1.538v10.77h-1.54z" transform="translate(-.461 -1)" style="fill:#fff"/>
</svg>
